<?xml version="1.0" encoding="UTF-8" standalone="no"?>
<!-- Created with Inkscape (http://www.inkscape.org/) -->

<svg
   width="118.37241mm"
   height="135.32526mm"
   viewBox="0 0 118.37241 135.32526"
   version="1.1"
   id="svg1"
   xml:space="preserve"
   inkscape:version="1.3 (0e150ed6c4, 2023-07-21)"
   sodipodi:docname="Desbloquear.svg"
   xmlns:inkscape="http://www.inkscape.org/namespaces/inkscape"
   xmlns:sodipodi="http://sodipodi.sourceforge.net/DTD/sodipodi-0.dtd"
   xmlns="http://www.w3.org/2000/svg"
   xmlns:svg="http://www.w3.org/2000/svg"><sodipodi:namedview
     id="namedview1"
     pagecolor="#ffffff"
     bordercolor="#000000"
     borderopacity="0.25"
     inkscape:showpageshadow="2"
     inkscape:pageopacity="0.0"
     inkscape:pagecheckerboard="0"
     inkscape:deskcolor="#d1d1d1"
     inkscape:document-units="mm"
     inkscape:zoom="0.74653479"
     inkscape:cx="30.139252"
     inkscape:cy="309.42965"
     inkscape:window-width="1920"
     inkscape:window-height="1009"
     inkscape:window-x="-8"
     inkscape:window-y="-8"
     inkscape:window-maximized="1"
     inkscape:current-layer="layer1" /><defs
     id="defs1" /><g
     inkscape:label="Camada 1"
     inkscape:groupmode="layer"
     id="layer1"
     transform="translate(-106.32572,-66.306342)"><path
       style="fill:#241c1c;fill-opacity:1"
       d="m 112.73776,201.4324 c -2.52244,-0.59969 -4.58567,-2.30199 -5.71888,-4.71845 l -0.69316,-1.4781 v -31.6177 -31.61771 l 0.69316,-1.47809 c 0.88108,-1.87881 2.29994,-3.29768 4.17875,-4.17875 l 1.47809,-0.69316 26.39219,-0.0723 26.39218,-0.0723 0.002,-15.67037 c 0.002,-17.018063 0.10427,-18.620933 1.4685,-22.947533 2.91901,-9.257491 10.63043,-16.733859 20.04177,-19.430871 17.45827,-5.003026 35.24079,6.853082 37.48152,24.989991 0.20892,1.69101 0.28266,6.44553 0.22567,14.550313 l -0.0847,12.03853 -0.69316,1.47809 c -1.45827,3.10962 -4.20348,4.8532 -7.64121,4.8532 -3.43773,0 -6.18294,-1.74358 -7.64122,-4.8532 l -0.69315,-1.47809 -0.14181,-12.96457 c -0.13807,-12.623503 -0.15734,-13.003603 -0.73229,-14.447653 -3.50823,-8.811287 -14.27263,-11.20046 -20.84624,-4.62685 -1.93759,1.93759 -3.15227,4.21701 -3.55381,6.66896 -0.14244,0.86978 -0.25576,8.236123 -0.25661,16.681093 l -0.002,15.12346 5.22553,0.0903 c 4.98856,0.0862 5.29254,0.12173 6.70361,0.78323 1.87867,0.8807 3.2976,2.29956 4.17875,4.17851 l 0.69316,1.4781 v 31.61769 31.61771 l -0.69316,1.47809 c -0.88108,1.8788 -2.29995,3.29767 -4.17875,4.17875 l -1.47809,0.69316 -39.55521,0.0417 c -22.53087,0.0238 -39.98401,-0.0602 -40.5515,-0.19515 z m 42.3408,-17.3546 c 1.72674,-1.28919 1.77511,-1.48016 1.86364,-7.35761 l 0.0811,-5.38163 1.44022,-0.70464 c 3.18495,-1.55825 5.78141,-4.89037 6.63629,-8.51657 0.3869,-1.64115 0.41729,-2.31233 0.18837,-4.16005 -0.88667,-7.15667 -7.32903,-12.10806 -14.39041,-11.06 -7.17774,1.06533 -12.12131,8.24668 -10.47733,15.22005 0.85647,3.63294 3.45123,6.95827 6.65121,8.52387 l 1.45514,0.71194 v 4.97881 c 0,2.88457 0.11871,5.2921 0.28221,5.72364 0.37252,0.98318 1.25125,1.91666 2.23133,2.37035 1.05443,0.4881 3.16149,0.30644 4.03826,-0.34816 z"
       id="path1" /></g></svg>
