<?xml version="1.0" encoding="UTF-8" standalone="no"?>
<!-- Created with Inkscape (http://www.inkscape.org/) -->

<svg
   width="101.59998mm"
   height="101.46452mm"
   viewBox="0 0 101.59998 101.46452"
   version="1.1"
   id="svg1"
   xml:space="preserve"
   inkscape:version="1.3 (0e150ed6c4, 2023-07-21)"
   sodipodi:docname="Reiniciar.svg"
   xmlns:inkscape="http://www.inkscape.org/namespaces/inkscape"
   xmlns:sodipodi="http://sodipodi.sourceforge.net/DTD/sodipodi-0.dtd"
   xmlns="http://www.w3.org/2000/svg"
   xmlns:svg="http://www.w3.org/2000/svg"><sodipodi:namedview
     id="namedview1"
     pagecolor="#ffffff"
     bordercolor="#000000"
     borderopacity="0.25"
     inkscape:showpageshadow="2"
     inkscape:pageopacity="0.0"
     inkscape:pagecheckerboard="0"
     inkscape:deskcolor="#d1d1d1"
     inkscape:document-units="mm"
     inkscape:zoom="0.74653479"
     inkscape:cx="221.69094"
     inkscape:cy="75.013249"
     inkscape:window-width="1920"
     inkscape:window-height="1009"
     inkscape:window-x="-8"
     inkscape:window-y="-8"
     inkscape:window-maximized="1"
     inkscape:current-layer="layer1" /><defs
     id="defs1" /><g
     inkscape:label="Camada 1"
     inkscape:groupmode="layer"
     id="layer1"
     transform="translate(-46.306283,-128.60187)"><path
       style="fill:#241c1c"
       d="m 91.682319,229.89016 c -18.8474,-2.12827 -35.20039,-14.68878 -41.952157,-32.22285 -0.806016,-2.09319 -2.989898,-9.32123 -2.845831,-9.4189 0.226062,-0.15325 10.601954,-3.08483 10.668529,-3.01425 0.04242,0.045 0.632194,1.92723 1.310613,4.18281 0.678418,2.25557 1.823549,5.34097 2.544735,6.85645 5.287659,11.11133 15.127183,18.92581 27.363691,21.73203 3.05056,0.69959 10.20633,0.9877 13.392481,0.53921 8.80747,-1.23975 16.54548,-5.03044 22.68074,-11.11084 1.84164,-1.82516 4.54032,-5.05209 4.54032,-5.42905 0,-0.0838 -3.45281,-0.15239 -7.67291,-0.15239 h -7.67292 v -5.55625 -5.55625 h 16.93333 16.93333 v 16.9386 16.93859 l -5.62239,-0.0714 -5.6224,-0.0714 -0.0707,-6.51474 -0.0707,-6.51474 -3.76576,3.73662 c -4.0695,4.038 -6.53653,5.93255 -11.08198,8.51038 -4.90874,2.78386 -10.26499,4.68353 -16.09941,5.7099 -3.48696,0.6134 -10.576511,0.86272 -13.890621,0.48849 z m 43.685631,-60.51538 c -2.27332,-7.57729 -5.37258,-12.93755 -10.35983,-17.91763 -5.45069,-5.44285 -11.58235,-8.84474 -19.17059,-10.63599 -3.87796,-0.91541 -10.550251,-1.1406 -14.661711,-0.49481 -10.28253,1.61506 -18.697183,6.59345 -25.486243,15.0785 -0.471531,0.58932 -0.858484,1.16079 -0.859896,1.26993 -0.0014,0.10914 3.450244,0.19845 7.670348,0.19845 h 7.672911 v 5.55625 5.55624 H 63.239612 46.306279 v -16.93859 -16.9386 l 5.622396,0.0714 5.622395,0.0714 0.07071,6.52285 0.07071,6.52285 3.501162,-3.49756 c 3.981324,-3.97723 6.909076,-6.25295 11.116738,-8.64093 22.761649,-12.91798 51.59274,-6.22388 66.63176,15.47078 2.00935,2.89859 4.29227,7.18807 5.51344,10.35939 0.82671,2.14695 3.019,9.38871 2.87263,9.48918 -0.1282,0.088 -10.38114,3.06408 -10.5561,3.06408 -0.0847,0 -0.71654,-1.87524 -1.40417,-4.1672 z"
       id="path1" /></g></svg>
